<?xml version="1.0" standalone="no"?>
<!DOCTYPE svg PUBLIC "-//W3C//DTD SVG 20010904//EN"
 "http://www.w3.org/TR/2001/REC-SVG-20010904/DTD/svg10.dtd">
<svg version="1.0" xmlns="http://www.w3.org/2000/svg"
 width="1616.000000pt" height="1616.000000pt" viewBox="0 0 1616.000000 1616.000000"
 preserveAspectRatio="xMidYMid meet">
<metadata>
Created by potrace 1.11, written by Peter Selinger 2001-2013
</metadata>
<g transform="translate(0.000000,1616.000000) scale(0.100000,-0.100000)"
fill="#000000" stroke="none">
<path d="M134 10900 c-42 -13 -99 -69 -119 -116 -23 -56 -15 -112 45 -309 29
-93 53 -174 55 -180 1 -5 4 -17 7 -25 3 -8 11 -35 18 -60 7 -25 16 -56 21 -70
4 -14 42 -140 84 -280 117 -395 124 -418 158 -525 17 -55 32 -105 33 -111 1
-6 14 -51 29 -100 15 -49 28 -93 29 -99 1 -5 5 -16 9 -22 5 -7 6 -13 2 -13 -3
0 2 -17 11 -37 8 -21 18 -49 20 -63 3 -14 22 -81 44 -150 21 -69 43 -141 48
-160 11 -38 124 -418 146 -490 31 -99 76 -250 101 -335 15 -49 38 -126 52
-170 14 -44 27 -87 28 -95 2 -8 13 -46 25 -85 12 -38 23 -79 26 -90 7 -29 10
-38 17 -55 7 -17 34 -108 47 -155 4 -16 34 -115 65 -220 32 -104 58 -194 60
-200 1 -5 5 -17 8 -25 3 -8 15 -46 26 -85 12 -38 42 -139 67 -224 25 -84 47
-158 48 -165 3 -14 54 -181 66 -216 13 -39 51 -169 55 -188 2 -9 4 -18 5 -19
2 -2 4 -7 5 -13 1 -5 4 -12 5 -15 1 -3 3 -8 4 -12 1 -5 10 -35 21 -68 10 -33
19 -64 20 -70 2 -5 13 -44 26 -85 12 -41 24 -84 26 -95 7 -38 53 -102 92 -128
57 -38 153 -39 211 -2 34 22 90 87 90 107 0 4 5 19 12 35 6 15 12 33 13 38 2
6 13 35 25 65 32 81 44 110 105 275 31 83 60 159 65 170 8 17 51 130 228 595
20 52 39 99 44 105 4 5 8 15 8 23 0 8 6 28 14 45 14 33 28 68 30 77 2 8 58
152 71 185 7 17 23 57 35 90 12 33 29 74 36 92 8 17 14 34 14 38 0 4 6 21 14
38 8 18 26 66 41 107 15 41 33 89 40 105 17 39 40 99 41 105 0 3 4 14 9 25 5
11 28 72 52 135 24 63 48 124 52 135 5 11 28 72 52 135 23 63 46 119 51 124 4
6 8 16 8 22 0 7 5 25 12 41 6 15 12 30 13 33 1 3 5 12 8 20 3 8 22 58 42 110
66 175 93 245 106 275 6 17 13 35 14 40 2 6 19 51 38 100 45 116 50 128 52
141 2 6 9 23 17 38 l14 27 12 -23 c6 -13 25 -61 42 -108 17 -47 35 -94 40
-105 5 -11 32 -81 60 -155 28 -74 55 -144 60 -155 5 -11 36 -92 70 -180 33
-88 65 -168 70 -177 6 -10 10 -23 10 -29 0 -6 7 -25 15 -42 8 -18 38 -93 66
-167 28 -74 61 -157 71 -185 11 -27 28 -71 37 -98 10 -26 21 -50 24 -54 4 -3
7 -12 7 -20 0 -7 8 -32 19 -56 10 -23 24 -58 31 -77 7 -19 19 -49 26 -67 8
-17 14 -34 14 -38 0 -4 6 -21 14 -38 7 -18 24 -59 36 -92 12 -33 28 -73 35
-90 27 -61 85 -220 85 -232 0 -7 4 -13 9 -13 5 0 12 -15 16 -32 9 -38 7 -32
28 -80 10 -21 17 -40 17 -42 0 -3 30 -81 66 -173 36 -93 79 -204 96 -248 16
-44 34 -89 39 -100 5 -11 36 -92 69 -180 34 -88 65 -169 70 -180 5 -11 32 -81
60 -155 28 -74 55 -144 59 -155 5 -11 14 -34 21 -51 26 -70 118 -128 194 -122
91 6 161 67 191 166 9 32 20 68 25 82 5 14 18 57 29 95 11 39 39 131 61 205
23 74 43 142 45 150 1 8 12 43 24 77 12 34 21 69 21 78 0 8 4 23 10 33 5 9 15
37 22 62 15 56 12 47 28 100 7 25 15 50 16 55 2 6 26 87 54 180 48 160 80 264
146 480 15 50 28 95 30 100 1 6 30 102 64 215 34 113 64 213 65 223 2 9 7 22
10 27 3 5 8 19 10 30 2 11 19 70 38 132 74 241 81 263 83 276 2 12 33 113 79
262 13 41 31 102 41 135 9 33 28 95 41 138 14 43 26 84 27 90 1 7 13 46 26 87
13 41 25 81 26 88 3 16 54 183 61 202 8 20 8 21 18 55 7 30 14 53 74 250 54
177 132 439 146 485 7 25 27 92 45 150 17 58 41 138 53 178 l21 74 18 -24 c10
-13 23 -35 30 -50 7 -16 16 -28 19 -28 4 0 10 -11 13 -25 4 -14 11 -25 16 -25
6 0 10 -5 10 -10 0 -6 11 -29 26 -51 14 -22 33 -55 43 -72 10 -18 71 -118 135
-224 64 -106 116 -197 116 -203 0 -5 5 -10 10 -10 6 0 10 -4 10 -9 0 -6 27
-53 60 -106 33 -53 60 -98 60 -101 0 -3 12 -24 28 -47 15 -23 32 -51 39 -62 6
-11 62 -105 125 -208 62 -104 124 -208 138 -232 47 -80 131 -220 171 -284 21
-34 39 -65 39 -66 0 -2 27 -47 60 -100 33 -53 60 -100 60 -106 0 -5 5 -9 10
-9 6 0 10 -5 10 -11 0 -7 18 -40 40 -75 22 -35 40 -68 40 -74 0 -5 5 -10 10
-10 6 0 10 -4 10 -9 0 -5 23 -46 50 -90 27 -44 50 -85 50 -91 0 -5 3 -10 8
-10 4 0 23 -29 42 -65 19 -36 38 -65 43 -65 4 0 7 -4 7 -10 0 -8 39 -78 90
-160 5 -8 58 -96 117 -195 59 -99 113 -187 118 -196 6 -9 19 -32 29 -50 10
-19 23 -37 28 -40 5 -3 8 -8 7 -10 -2 -2 4 -15 13 -29 26 -40 499 -832 520
-869 11 -19 30 -50 44 -70 13 -20 24 -41 24 -47 0 -7 3 -14 8 -16 6 -2 85
-128 102 -163 3 -6 70 -117 148 -248 157 -260 184 -290 269 -303 25 -4 61 -2
82 5 41 12 110 60 111 76 0 6 5 16 12 23 7 7 29 72 50 144 21 73 40 138 42
143 1 6 6 24 11 40 4 17 10 35 14 40 3 6 6 15 7 22 3 16 58 202 120 403 5 14
8 27 9 30 0 3 11 39 23 80 13 41 32 107 43 145 11 39 23 77 26 85 3 8 7 20 9
27 1 7 12 45 24 85 12 40 29 96 37 123 8 28 17 56 19 63 2 7 4 14 5 17 0 2 14
48 31 102 41 134 82 271 113 378 14 50 28 96 30 103 3 7 5 14 6 17 0 2 8 26
16 52 8 27 23 80 34 118 11 39 22 77 26 85 3 8 7 17 8 20 5 15 28 97 30 105 1
6 5 17 8 25 3 8 15 49 27 90 23 79 79 266 85 288 3 7 5 14 6 17 0 2 14 48 31
102 16 54 32 107 35 118 3 11 21 71 40 133 19 62 36 120 38 130 5 20 105 353
139 462 13 41 27 89 31 105 5 17 10 35 11 40 21 66 58 186 64 210 4 17 24 84
44 150 21 66 51 165 67 220 17 55 34 111 39 125 5 14 11 38 15 54 8 39 16 28
59 -89 21 -55 53 -138 72 -185 19 -47 34 -89 34 -93 0 -4 9 -26 19 -50 21 -47
72 -176 76 -192 1 -5 7 -23 14 -40 46 -112 112 -285 115 -300 1 -5 5 -15 8
-20 4 -6 32 -78 63 -160 31 -83 63 -163 70 -180 7 -16 23 -56 34 -89 23 -63
117 -308 131 -341 19 -45 80 -205 80 -211 0 -3 6 -20 14 -37 8 -18 26 -63 41
-102 14 -38 37 -97 50 -130 13 -33 56 -143 95 -245 38 -102 74 -194 79 -205 5
-11 14 -33 20 -50 6 -16 16 -43 22 -60 7 -16 13 -32 14 -35 1 -3 7 -18 13 -33
7 -16 12 -30 12 -32 0 -4 101 -264 120 -310 4 -11 18 -47 30 -80 12 -33 26
-69 31 -80 4 -11 22 -55 39 -98 39 -101 54 -123 105 -152 82 -49 187 -35 246
32 27 31 67 106 73 138 2 10 58 155 79 205 6 14 11 27 11 30 1 3 19 50 40 105
21 55 53 138 71 185 109 285 158 409 171 437 8 17 14 34 14 38 0 4 21 59 46
123 25 65 59 153 76 197 17 44 34 89 39 100 5 11 36 92 69 180 33 88 66 171
72 185 6 14 12 30 14 35 2 11 51 139 65 170 13 30 51 129 54 140 1 6 7 24 14
40 7 17 23 57 36 90 13 33 40 103 60 155 21 52 72 187 115 300 43 113 120 311
170 440 51 129 97 250 104 269 7 19 15 30 18 25 4 -5 22 -63 42 -129 47 -162
96 -327 101 -343 3 -7 5 -14 5 -17 0 -3 7 -23 15 -45 8 -22 15 -42 15 -45 1
-8 7 -27 29 -100 12 -38 24 -77 25 -85 2 -8 6 -22 9 -30 6 -15 39 -126 43
-145 1 -5 9 -30 17 -55 14 -42 26 -81 94 -310 14 -47 28 -92 31 -100 3 -8 6
-19 6 -25 2 -12 35 -122 46 -150 6 -16 31 -96 35 -115 1 -3 9 -32 19 -65 10
-33 19 -64 21 -70 1 -5 5 -17 8 -25 5 -13 95 -310 101 -335 1 -5 13 -44 25
-85 13 -41 24 -79 25 -85 4 -19 39 -130 47 -150 7 -16 23 -74 34 -120 1 -5 5
-17 8 -25 7 -15 67 -217 71 -235 3 -14 56 -186 63 -205 3 -8 8 -24 10 -35 2
-11 7 -31 12 -45 13 -34 62 -196 66 -217 2 -10 4 -19 5 -20 3 -3 3 -3 15 -48
4 -16 12 -36 18 -42 5 -7 7 -13 4 -13 -3 0 -1 -15 4 -32 23 -74 50 -164 53
-173 2 -5 6 -17 9 -25 3 -8 11 -35 18 -60 16 -58 14 -52 44 -150 15 -47 30
-98 35 -115 20 -75 181 -603 191 -627 17 -41 82 -95 129 -108 81 -22 172 13
223 84 18 25 22 44 22 106 -1 41 -8 98 -17 125 -26 81 -90 287 -93 299 -1 6
-5 18 -8 26 -3 8 -31 101 -62 205 -31 105 -81 271 -111 370 -47 154 -60 197
-78 270 -2 6 -6 17 -9 25 -3 8 -19 61 -36 118 -17 56 -45 148 -62 205 -17 56
-35 118 -40 137 -6 19 -13 42 -16 50 -3 8 -7 20 -9 25 -5 22 -62 212 -119 395
-14 47 -28 94 -30 104 -2 11 -11 40 -20 66 -9 26 -17 55 -19 66 -2 10 -13 46
-24 79 -11 33 -32 101 -46 150 -15 50 -36 122 -48 160 -12 39 -23 75 -24 80
-1 6 -30 100 -64 210 -33 110 -62 207 -64 215 -2 8 -12 42 -22 75 -10 33 -19
65 -20 70 -2 6 -42 138 -90 295 -47 157 -87 290 -88 295 -1 6 -19 64 -40 130
-33 109 -54 178 -106 350 -9 33 -24 80 -31 105 -8 25 -14 47 -15 50 0 3 -3 12
-6 20 -3 8 -10 31 -16 50 -20 66 -56 185 -58 193 -1 4 -2 8 -4 10 -1 1 -3 9
-5 17 -1 8 -11 42 -21 75 -10 33 -19 62 -19 65 -26 98 -55 168 -82 200 -73 85
-209 92 -287 14 -28 -29 -70 -110 -81 -159 -2 -5 -11 -28 -20 -50 -10 -22 -19
-42 -19 -45 -2 -6 -48 -128 -67 -175 -7 -16 -13 -35 -14 -40 -2 -6 -13 -35
-25 -65 -12 -30 -26 -64 -30 -75 -4 -11 -13 -33 -21 -50 -7 -16 -13 -32 -14
-35 -1 -8 -32 -89 -102 -270 -35 -91 -84 -217 -108 -280 -96 -247 -138 -356
-148 -380 -5 -14 -11 -29 -13 -35 -3 -11 -217 -567 -300 -778 -30 -76 -54
-145 -54 -153 0 -7 -4 -14 -10 -14 -5 0 -9 -3 -9 -7 1 -5 0 -11 -1 -15 -1 -5
-3 -11 -5 -15 -1 -5 -5 -17 -10 -28 -5 -11 -28 -72 -52 -135 -24 -63 -48 -123
-53 -132 -6 -10 -10 -23 -10 -29 0 -6 -6 -25 -14 -42 -8 -18 -49 -122 -91
-232 -42 -110 -90 -233 -106 -272 -16 -40 -29 -79 -29 -88 0 -8 -5 -15 -10
-15 -6 0 -9 -3 -9 -7 9 -57 -19 -46 -39 14 -8 21 -17 47 -22 58 -5 11 -21 52
-35 90 -15 39 -42 108 -60 155 -19 47 -44 112 -56 145 -12 33 -26 71 -32 85
-6 14 -11 27 -12 30 -1 3 -9 22 -18 44 -9 21 -17 42 -17 47 0 5 -4 17 -9 27
-5 9 -24 55 -41 102 -38 102 -44 118 -58 150 -5 14 -31 81 -57 150 -27 69 -53
139 -60 155 -7 17 -23 57 -35 90 -12 33 -26 69 -31 80 -4 11 -24 61 -43 110
-113 298 -169 444 -180 470 -22 51 -41 100 -41 105 0 5 -41 112 -56 145 -7 17
-63 161 -206 535 -13 36 -28 74 -33 85 -5 11 -27 70 -50 130 -82 215 -142 370
-155 400 -8 17 -17 44 -21 60 -15 62 -70 150 -112 179 -95 67 -232 34 -284
-69 -13 -25 -73 -215 -108 -340 -5 -16 -17 -59 -28 -95 -44 -141 -123 -406
-127 -424 -2 -10 -15 -53 -29 -95 -13 -42 -33 -107 -44 -146 -12 -38 -38 -124
-58 -190 -48 -157 -95 -316 -99 -335 -2 -8 -29 -98 -60 -200 -31 -102 -70
-230 -86 -285 -17 -55 -43 -144 -60 -197 -16 -53 -32 -105 -34 -115 -2 -10
-16 -56 -30 -103 -15 -47 -31 -101 -36 -120 -6 -19 -14 -46 -19 -60 -5 -14
-18 -59 -30 -100 -12 -41 -30 -102 -40 -135 -58 -188 -81 -266 -85 -282 -2
-10 -29 -101 -60 -203 -64 -209 -182 -600 -195 -645 -8 -29 -22 -76 -55 -185
-8 -27 -21 -71 -29 -97 -8 -27 -26 -86 -40 -133 -15 -47 -28 -92 -31 -100 -2
-8 -20 -69 -40 -135 -19 -66 -37 -124 -39 -130 -2 -9 -52 68 -97 150 -12 22
-25 42 -28 45 -4 3 -12 16 -18 30 -7 14 -23 42 -35 62 -13 20 -72 119 -133
220 -60 100 -114 190 -120 199 -5 9 -19 32 -29 50 -10 19 -23 37 -28 40 -5 3
-10 10 -10 15 -1 5 -6 18 -13 29 -65 104 -215 359 -215 366 0 5 -4 9 -10 9 -5
0 -10 4 -10 9 0 5 -133 230 -295 500 -162 270 -295 496 -295 500 0 5 -3 11 -8
13 -6 2 -98 151 -138 223 -6 11 -50 85 -99 165 -48 80 -95 159 -105 175 -9 17
-36 60 -58 98 -23 37 -42 69 -42 72 0 3 -8 14 -17 25 -10 11 -18 24 -18 28 0
4 -8 18 -17 32 -18 28 -182 299 -208 345 -9 17 -54 90 -98 164 -45 74 -82 135
-82 136 0 3 -137 231 -170 285 -7 12 -65 109 -115 191 -5 9 -36 61 -68 115
-32 55 -97 162 -144 239 -47 77 -93 154 -102 170 -9 17 -41 69 -71 118 -47 74
-63 91 -104 112 -60 30 -115 32 -174 5 -78 -35 -95 -65 -151 -260 -24 -80 -46
-156 -51 -170 -11 -34 -63 -202 -66 -215 -4 -18 -127 -431 -161 -540 -13 -44
-26 -88 -28 -98 -2 -9 -6 -21 -9 -25 -3 -5 -7 -19 -10 -33 -3 -13 -44 -152
-92 -309 -47 -157 -87 -292 -89 -300 -2 -8 -31 -105 -65 -215 -34 -110 -63
-207 -65 -215 -2 -8 -4 -15 -5 -15 -1 0 -3 -7 -5 -15 -2 -8 -24 -85 -50 -170
-48 -159 -95 -317 -99 -335 -2 -5 -6 -17 -9 -25 -5 -14 -14 -41 -37 -125 -4
-16 -31 -106 -60 -200 -68 -226 -101 -338 -104 -350 -1 -5 -15 -50 -30 -100
-15 -49 -30 -98 -32 -108 -1 -10 -12 -44 -22 -75 -11 -31 -29 -88 -40 -127
-21 -71 -55 -186 -57 -195 -1 -3 -4 -12 -8 -20 -5 -15 -116 -385 -121 -405
-14 -59 -50 -163 -56 -160 -4 3 -11 17 -15 32 -3 16 -13 42 -20 58 -20 44
-105 264 -105 271 0 3 -6 20 -14 37 -8 18 -28 70 -46 117 -18 47 -40 103 -50
125 -16 37 -33 83 -35 95 -1 7 -84 217 -101 257 -8 17 -14 33 -14 36 0 3 -29
82 -65 174 -83 213 -109 280 -185 478 -34 88 -65 169 -70 180 -15 35 -101 258
-122 315 -11 30 -23 64 -28 75 -5 11 -29 72 -54 135 -24 63 -72 187 -105 275
-34 88 -84 216 -110 285 -27 69 -77 197 -111 285 -33 88 -68 174 -76 192 -8
17 -14 35 -14 41 0 5 -9 30 -20 56 -83 186 -319 178 -390 -13 -59 -159 -124
-330 -135 -356 -15 -34 -235 -605 -239 -620 -2 -5 -7 -19 -11 -30 -5 -11 -38
-99 -75 -195 -37 -96 -71 -184 -75 -195 -5 -11 -9 -22 -10 -25 -1 -7 -36 -97
-78 -205 -20 -49 -76 -198 -127 -330 -50 -132 -95 -249 -99 -260 -8 -18 -47
-120 -157 -410 -19 -49 -39 -98 -44 -107 -6 -10 -10 -23 -10 -29 0 -6 -6 -25
-14 -42 -17 -41 -57 -145 -60 -157 -1 -3 -8 -16 -16 -30 -7 -14 -13 -27 -13
-30 1 -8 -18 -60 -107 -290 -28 -74 -56 -147 -62 -162 -13 -34 -24 -36 -31 -5
-5 23 -32 113 -112 377 -26 85 -48 160 -49 165 -2 6 -8 28 -14 50 -6 22 -11
42 -10 45 1 3 -4 15 -11 28 -7 13 -14 31 -16 40 -4 22 -49 171 -104 350 -5 18
-10 34 -11 37 0 3 -3 10 -5 17 -7 21 -96 322 -100 338 -2 8 -14 51 -28 95 -40
128 -79 257 -82 269 -1 6 -5 18 -8 26 -5 14 -126 423 -132 445 -1 6 -5 17 -8
25 -3 8 -15 49 -27 90 -12 41 -28 92 -36 113 -8 20 -12 37 -9 37 2 0 -2 15
-10 33 -7 17 -13 35 -13 40 -1 7 -50 173 -76 257 -16 47 -87 288 -91 305 -1 6
-5 17 -8 25 -7 20 -46 150 -52 175 -5 24 -74 254 -82 275 -4 8 -7 20 -8 25 0
6 -4 17 -8 25 -3 8 -15 47 -26 85 -11 39 -36 124 -56 190 -20 66 -38 125 -39
130 -8 32 -29 102 -47 157 -11 35 -22 70 -24 78 -18 76 -101 332 -117 357 -20
33 -69 74 -98 81 -36 10 -107 10 -136 2z"/>
</g>
</svg>
