<svg aria-hidden="true" style="position: absolute; width: 0; height: 0; overflow: hidden;" version="1.1" xmlns="http://www.w3.org/2000/svg" xmlns:xlink="http://www.w3.org/1999/xlink">
<defs>
  <symbol id="icon-up-arrow" viewBox="0 0 32 32">
<path d="M31.797 23.162l-15.309-15.309c-0.272-0.272-0.712-0.272-0.984 0l-15.309 15.309c-0.267 0.276-0.259 0.717 0.017 0.984 0.27 0.261 0.697 0.261 0.967 0l14.816-14.816 14.816 14.818c0.276 0.267 0.717 0.259 0.984-0.017 0.26-0.27 0.26-0.697 0-0.967l0.001-0.001z"></path>
<path d="M31.304 24.351c-0.185 0-0.362-0.073-0.493-0.203l-14.816-14.818-14.816 14.818c-0.276 0.267-0.717 0.259-0.984-0.017-0.261-0.27-0.261-0.697 0-0.967l15.309-15.309c0.272-0.272 0.712-0.272 0.984 0l15.309 15.309c0.271 0.272 0.271 0.713-0.002 0.984-0.13 0.13-0.307 0.203-0.491 0.203z"></path>
</symbol>
    <symbol id="icon-switch" viewBox="0 0 32 32">
<path stroke-linejoin="miter" stroke-linecap="round" stroke-miterlimit="4" stroke-width="0.5897" d="M3.621 2.074h25.091c0.759 0 1.374 0.615 1.374 1.374v25.091c0 0.759-0.615 1.374-1.374 1.374h-25.091c-0.759 0-1.374-0.615-1.374-1.374v-25.091c0-0.759 0.615-1.374 1.374-1.374z"></path>
<path stroke-linejoin="miter" stroke-linecap="round" stroke-miterlimit="4" stroke-width="0.5897" d="M13.372 10.412h5.572v6.954h-5.572v-6.954z"></path>
<path stroke-linejoin="miter" stroke-linecap="butt" stroke-miterlimit="4" stroke-width="0.5897" d="M13.372 17.366h5.572v2.795h-5.572v-2.795z"></path>
<path stroke-linejoin="miter" stroke-linecap="butt" stroke-miterlimit="4" stroke-width="0.5897" d="M5.014 15.984c0-0.001 0-0.001 0-0.002 0-0.52 0.422-0.942 0.942-0.942s0.942 0.422 0.942 0.942c0 0.52-0.422 0.942-0.942 0.942v0c-0.001 0-0.001 0-0.002 0-0.519 0-0.94-0.421-0.94-0.94 0 0 0 0 0 0v0z"></path>
<path stroke-linejoin="miter" stroke-linecap="butt" stroke-miterlimit="4" stroke-width="0.5897" d="M25.419 15.984c0-0.001 0-0.001 0-0.002 0-0.52 0.422-0.942 0.942-0.942s0.942 0.422 0.942 0.942c0 0.52-0.422 0.942-0.942 0.942-0.001 0-0.001 0-0.002 0h0c-0.519 0-0.94-0.421-0.94-0.94v0z"></path>
</symbol>
    <symbol id="icon-medium" viewBox="0 0 32 32">
<path d="M29.447 6.311l2.553-2.443v-0.535h-8.845l-6.304 15.691-7.172-15.691h-9.275v0.535l2.983 3.591c0.291 0.265 0.443 0.653 0.404 1.044v14.111c0.092 0.508-0.073 1.031-0.431 1.4l-3.36 4.072v0.528h9.527v-0.535l-3.36-4.065c-0.364-0.371-0.536-0.884-0.463-1.4v-12.205l8.363 18.212h0.972l7.191-18.212v14.508c0 0.383 0 0.461-0.251 0.712l-2.587 2.503v0.536h12.549v-0.535l-2.493-2.441c-0.219-0.165-0.332-0.443-0.285-0.712v-17.956c-0.047-0.271 0.065-0.548 0.284-0.712z"></path>
</symbol>
<symbol id="icon-dot" viewBox="0 0 32 32">
<path d="M16 8c-4.416 0-8 3.584-8 8s3.584 8 8 8 8-3.584 8-8-3.584-8-8-8z"></path>
<path d="M16 0c-8.84 0-16 7.16-16 16s7.16 16 16 16 16-7.16 16-16-7.16-16-16-16zM16 28.8c-7.072 0-12.8-5.728-12.8-12.8s5.728-12.8 12.8-12.8 12.8 5.728 12.8 12.8-5.728 12.8-12.8 12.8z"></path>
</symbol>
    <symbol id="icon-pause" viewBox="0 0 32 32">
<path d="M16 0c-8.823 0-16 7.178-16 16s7.177 16 16 16 16-7.178 16-16-7.177-16-16-16zM16 30.667c-8.087 0-14.667-6.579-14.667-14.667s6.579-14.667 14.667-14.667 14.667 6.579 14.667 14.667-6.579 14.667-14.667 14.667z"></path>
<path d="M14 9.333h-4c-0.368 0-0.667 0.298-0.667 0.667v12c0 0.369 0.298 0.667 0.667 0.667h4c0.368 0 0.667-0.298 0.667-0.667v-12c0-0.368-0.298-0.667-0.667-0.667zM13.333 21.333h-2.667v-10.667h2.667v10.667z"></path>
<path d="M22 9.333h-4c-0.369 0-0.667 0.298-0.667 0.667v12c0 0.369 0.298 0.667 0.667 0.667h4c0.369 0 0.667-0.298 0.667-0.667v-12c0-0.368-0.298-0.667-0.667-0.667zM21.333 21.333h-2.667v-10.667h2.667v10.667z"></path>
</symbol>
  <symbol id="icon-logo" viewBox="0 0 91 32">
    <title>logo</title>
    <path d="M0.072 1.52l8.892 29.671c0.134 0.459 0.543 0.792 1.032 0.809l0.002 0c0.012 0 0.027 0.001 0.041 0.001 0.482 0 0.894-0.299 1.062-0.721l0.003-0.008 7.777-20.329 7.858 20.302c0.162 0.429 0.569 0.729 1.046 0.729 0.018 0 0.036-0 0.053-0.001l-0.003 0c0.492-0.022 0.901-0.352 1.041-0.801l0.002-0.008 8.191-27.19 16.463 27.441c0.201 0.334 0.562 0.555 0.974 0.555 0.509 0 0.94-0.336 1.083-0.798l0.002-0.008 7.939-26.479 7.706 19.961c0.164 0.424 0.569 0.719 1.042 0.719 0.003 0 0.007 0 0.010-0h-0.001c0 0 0 0 0 0 0.478 0 0.888-0.294 1.058-0.712l0.003-0.008 7.697-19.961 7.966 26.479c0.16 0.438 0.573 0.744 1.058 0.744 0.14 0 0.274-0.026 0.398-0.072l-0.008 0.003c0.44-0.165 0.747-0.583 0.747-1.071 0-0.089-0.010-0.175-0.029-0.258l0.001 0.008-8.91-29.617c-0.144-0.455-0.552-0.784-1.040-0.809l-0.003-0c-0.013-0.001-0.029-0.001-0.045-0.001-0.479 0-0.888 0.3-1.050 0.721l-0.003 0.008-7.84 20.275-7.858-20.302c-0.181-0.4-0.576-0.674-1.036-0.674-0.5 0-0.925 0.324-1.075 0.774l-0.002 0.008-8.155 27.154-16.472-27.441c-0.205-0.311-0.553-0.514-0.949-0.514-0.507 0-0.937 0.334-1.081 0.793l-0.002 0.008-7.966 26.452-7.724-19.961c-0.165-0.429-0.573-0.728-1.052-0.728s-0.887 0.299-1.049 0.721l-0.003 0.008-7.688 19.952-7.939-26.443c-0.112-0.528-0.574-0.919-1.127-0.919-0.075 0-0.149 0.007-0.22 0.021l0.007-0.001c-0.534 0.107-0.93 0.572-0.93 1.129 0 0.094 0.011 0.185 0.032 0.272l-0.002-0.008c0.019 0.048 0.044 0.090 0.073 0.127l-0.001-0.001z"></path>
  </symbol>
  <symbol id="icon-logo_width_text" viewBox="0 0 58 32">
    <title>logo_width_text</title>
    <path d="M0 26.778h1.137l1.054 3.163 1.027-3.163h0.917l1.027 3.163 1.054-3.163h1.148l-1.702 5.073h-0.933l-1.043-3.212-1.049 3.212h-0.944l-1.691-5.073z"></path>
    <path d="M8.236 29.315c-0.002-0.040-0.004-0.087-0.004-0.135 0-1.404 1.138-2.542 2.542-2.542 0.042 0 0.083 0.001 0.125 0.003l-0.006-0c0.017-0 0.037-0.001 0.057-0.001 1.352 0 2.449 1.096 2.449 2.449 0 0.037-0.001 0.074-0.002 0.11l0-0.005s0 0.225 0 0.423h-3.942c0.026 0.744 0.635 1.336 1.383 1.336 0.051 0 0.101-0.003 0.15-0.008l-0.006 0.001c0.018 0.001 0.039 0.001 0.061 0.001 0.52 0 0.987-0.224 1.311-0.582l0.001-0.002 0.725 0.703c-0.505 0.558-1.231 0.908-2.040 0.908-0.034 0-0.068-0.001-0.101-0.002l0.005 0c-0.062 0.005-0.133 0.009-0.206 0.009-1.383 0-2.504-1.121-2.504-2.504 0-0.042 0.001-0.083 0.003-0.124l-0 0.006zM12.167 28.766c-0.054-0.619-0.57-1.101-1.198-1.101-0.027 0-0.053 0.001-0.079 0.003l0.004-0c-0.030-0.002-0.065-0.004-0.1-0.004-0.658 0-1.206 0.47-1.326 1.093l-0.001 0.008z"></path>
    <path d="M19.827 26.778h1.197v0.725c0.29-0.498 0.821-0.827 1.429-0.827 0.038 0 0.076 0.001 0.114 0.004l-0.005-0c1.219 0 1.922 0.785 1.922 2.032v3.135h-1.208v-2.965c0.004-0.034 0.006-0.074 0.006-0.114 0-0.561-0.455-1.016-1.016-1.016-0.031 0-0.062 0.001-0.093 0.004l0.004-0c-0.013-0.001-0.029-0.001-0.045-0.001-0.625 0-1.131 0.506-1.131 1.131 0 0.018 0 0.035 0.001 0.053l-0-0.002v2.91h-1.175z"></path>
    <path d="M28.799 26.63c1.457 0.034 2.625 1.223 2.625 2.684 0 1.483-1.202 2.685-2.685 2.685s-2.685-1.202-2.685-2.684v-0c0.009-1.485 1.215-2.685 2.701-2.685 0.015 0 0.031 0 0.046 0l-0.002-0zM28.799 30.907c0.007 0 0.014 0 0.022 0 0.879 0 1.592-0.713 1.592-1.592s-0.713-1.592-1.592-1.592c-0.879 0-1.592 0.713-1.592 1.592v0c-0 0.010-0 0.021-0 0.033 0 0.861 0.698 1.559 1.559 1.559 0.004 0 0.008 0 0.012-0h-0.001z"></path>
    <path d="M33.504 27.876h-0.653v-1.098h0.653v-1.938h1.208v1.938h1.098v1.098h-1.098v3.975h-1.208v-3.975z"></path>
    <path d="M42.015 26.778h1.197v0.725c0.269-0.495 0.786-0.826 1.379-0.826 0.617 0 1.151 0.358 1.406 0.877l0.004 0.009c0.291-0.535 0.849-0.891 1.49-0.891 0.055 0 0.11 0.003 0.164 0.008l-0.007-0.001c1.098 0 1.757 0.785 1.757 2.032v3.135h-1.191v-2.965c0-0.681-0.324-1.126-0.906-1.126-0.564 0.023-1.013 0.486-1.013 1.053 0 0.045 0.003 0.089 0.008 0.132l-0.001-0.005v2.91h-1.202v-2.965c0-0.681-0.318-1.126-0.9-1.126-0.557 0.035-0.995 0.495-0.995 1.058 0 0.043 0.003 0.086 0.008 0.128l-0.001-0.005v2.91h-1.197z"></path>
    <path d="M50.971 29.315c-0.002-0.040-0.004-0.087-0.004-0.134 0-1.404 1.138-2.542 2.542-2.542 0.040 0 0.080 0.001 0.119 0.003l-0.006-0c0.017-0 0.037-0.001 0.057-0.001 1.352 0 2.449 1.096 2.449 2.449 0 0.037-0.001 0.074-0.002 0.11l0-0.005s0 0.225 0 0.423h-3.964c0.026 0.744 0.635 1.336 1.383 1.336 0.051 0 0.1-0.003 0.15-0.008l-0.006 0.001c0.018 0.001 0.039 0.001 0.060 0.001 0.518 0 0.984-0.224 1.306-0.581l0.001-0.002 0.725 0.703c-0.505 0.558-1.231 0.907-2.039 0.907-0.032 0-0.064-0.001-0.096-0.002l0.005 0c-0.055 0.004-0.119 0.007-0.184 0.007-1.383 0-2.504-1.121-2.504-2.504 0-0.041 0.001-0.082 0.003-0.122l-0 0.006zM54.902 28.766c-0.057-0.619-0.574-1.101-1.203-1.101-0.027 0-0.053 0.001-0.080 0.003l0.004-0c-0.029-0.002-0.062-0.003-0.096-0.003-0.659 0-1.208 0.47-1.331 1.093l-0.001 0.009z"></path>
    <path d="M0.231 0.889l5.43 18.119c0.083 0.279 0.332 0.482 0.63 0.494l0.001 0c0.006 0 0.014 0 0.021 0 0.295 0 0.548-0.182 0.652-0.44l0.002-0.005 4.771-12.415 4.799 12.398c0.102 0.262 0.353 0.445 0.646 0.445 0.008 0 0.017-0 0.025-0l-0.001 0c0.299-0.017 0.547-0.217 0.636-0.489l0.001-0.005 4.98-16.604 10.054 16.758c0.125 0.205 0.348 0.339 0.602 0.339 0.028 0 0.055-0.002 0.083-0.005l-0.003 0c0.275-0.036 0.497-0.228 0.575-0.484l0.001-0.005 4.848-16.17 4.706 12.189c0.104 0.259 0.352 0.439 0.642 0.439h0c0 0 0 0 0 0 0.292 0 0.542-0.18 0.646-0.435l0.002-0.005 4.7-12.189 4.854 16.17c0.1 0.267 0.353 0.454 0.649 0.454 0.382 0 0.692-0.31 0.692-0.692 0-0.056-0.007-0.11-0.019-0.162l0.001 0.005-5.43-18.103c-0.085-0.28-0.336-0.482-0.636-0.494l-0.001-0c-0.009-0-0.020-0.001-0.031-0.001-0.291 0-0.54 0.183-0.637 0.441l-0.002 0.005-4.788 12.398-4.799-12.398c-0.109-0.248-0.352-0.419-0.636-0.419-0.302 0-0.559 0.194-0.653 0.463l-0.001 0.005-4.98 16.599-10.059-16.758c-0.125-0.193-0.339-0.319-0.583-0.319-0.306 0-0.565 0.198-0.657 0.473l-0.001 0.005-4.865 16.17-4.717-12.189c-0.101-0.262-0.35-0.445-0.642-0.445s-0.542 0.183-0.641 0.44l-0.002 0.005-4.695 12.184-4.848-16.165c-0.074-0.309-0.347-0.535-0.674-0.535-0.382 0-0.692 0.31-0.692 0.692 0 0.086 0.016 0.167 0.044 0.243l-0.002-0.005z"></path>
    <path d="M56.944 0c0.497 0.012 0.895 0.418 0.895 0.917 0 0.506-0.411 0.917-0.917 0.917s-0.917-0.411-0.917-0.917c0-0.002 0-0.004 0-0.005v0c0.003-0.504 0.412-0.912 0.917-0.912 0.008 0 0.015 0 0.023 0l-0.001-0zM56.944 1.702c0 0 0 0 0.001 0 0.418 0 0.758-0.339 0.758-0.758 0-0.012-0-0.023-0.001-0.035l0 0.002c0-0.418-0.339-0.758-0.758-0.758s-0.758 0.339-0.758 0.758v0c-0 0.010-0.001 0.021-0.001 0.033 0 0.418 0.339 0.758 0.758 0.758 0 0 0.001 0 0.001 0h-0zM56.587 0.379h0.417c0.253 0 0.373 0.104 0.373 0.307 0 0.005 0.001 0.011 0.001 0.017 0 0.152-0.123 0.275-0.275 0.275-0.002 0-0.004-0-0.006-0h0l0.302 0.478h-0.176l-0.291-0.461h-0.176v0.461h-0.17zM56.758 0.857h0.17c0.148 0 0.286 0 0.286-0.176s-0.126-0.165-0.236-0.165h-0.22z"></path>
  </symbol>
  <symbol id="icon-contact" viewBox="0 0 32 32">
    <title>contact</title>
    <path d="M27.4 5.452h-22.857c-1.972 0.001-3.571 1.599-3.571 3.571v13.335c0.001 1.972 1.599 3.571 3.571 3.571h22.857c1.972-0 3.571-1.599 3.571-3.571v-13.335c-0.001-1.972-1.599-3.571-3.571-3.571zM4.543 6.881h22.857c1.029 0.003 1.912 0.733 2.107 1.743l-13.536 7.543-13.536-7.543c0.196-1.010 1.078-1.74 2.107-1.743zM27.4 24.495h-22.857c-1.182-0.004-2.139-0.961-2.143-2.143v-12.114l13.221 7.371c0.107 0.059 0.227 0.091 0.35 0.093s0.244-0.031 0.35-0.093l13.221-7.371v12.114c-0.001 1.183-0.96 2.142-2.143 2.143z"></path>
  </symbol>
  <symbol id="icon-camera" viewBox="0 0 32 32">
    <title>camera</title>
    <path d="M30.935 7.331c-0.639-0.669-1.521-1.065-2.525-1.065h-5.049v-0.061c0-0.76-0.304-1.49-0.821-1.977-0.517-0.517-1.217-0.821-1.977-0.821h-9.125c-0.791 0-1.491 0.304-2.008 0.821s-0.821 1.217-0.821 1.977v0.061h-5.019c-1.004 0-1.886 0.395-2.525 1.065-0.639 0.639-1.065 1.551-1.065 2.525v15.148c0 1.004 0.395 1.886 1.065 2.525 0.639 0.639 1.551 1.065 2.525 1.065h24.821c1.004 0 1.886-0.395 2.525-1.065 0.639-0.639 1.065-1.551 1.065-2.525v-15.148c0-1.004-0.395-1.886-1.065-2.525zM30.418 25.004h-0.030c0 0.548-0.213 1.034-0.578 1.399s-0.852 0.578-1.399 0.578h-24.821c-0.548 0-1.034-0.213-1.399-0.578s-0.578-0.852-0.578-1.399v-15.148c0-0.548 0.213-1.034 0.578-1.399s0.852-0.578 1.399-0.578h5.871c0.456 0 0.821-0.365 0.821-0.821v-0.882c0-0.335 0.122-0.639 0.335-0.852s0.517-0.335 0.852-0.335h9.095c0.335 0 0.639 0.122 0.852 0.335s0.335 0.517 0.335 0.852v0.882c0 0.456 0.365 0.821 0.821 0.821h5.871c0.548 0 1.034 0.213 1.399 0.578s0.578 0.852 0.578 1.399v15.148z"></path>
    <path d="M16 9.947c-2.068 0-3.954 0.852-5.293 2.19-1.369 1.369-2.19 3.224-2.19 5.293s0.852 3.954 2.19 5.293c1.369 1.369 3.224 2.19 5.293 2.19s3.954-0.852 5.293-2.19c1.369-1.369 2.19-3.224 2.19-5.293s-0.852-3.954-2.19-5.293c-1.338-1.338-3.224-2.19-5.293-2.19zM20.137 21.597c-1.065 1.034-2.525 1.703-4.137 1.703s-3.072-0.669-4.137-1.703c-1.065-1.065-1.703-2.525-1.703-4.137s0.669-3.072 1.703-4.137c1.065-1.065 2.525-1.703 4.137-1.703s3.072 0.669 4.137 1.703c1.065 1.065 1.703 2.525 1.703 4.137 0.030 1.612-0.639 3.072-1.703 4.137z"></path>
    <path d="M28.319 11.407c0 0.823-0.667 1.491-1.491 1.491s-1.491-0.667-1.491-1.491c0-0.823 0.667-1.491 1.491-1.491s1.491 0.667 1.491 1.491z"></path>
  </symbol>
  <symbol id="icon-arrow" viewBox="0 0 32 32">
    <title>arrow</title>
    <path d="M24.276 15.122l-14.801-14.76c-0.485-0.483-1.27-0.482-1.754 0.003s-0.482 1.27 0.003 1.754l13.92 13.881-13.92 13.881c-0.485 0.484-0.486 1.269-0.003 1.754 0.243 0.243 0.561 0.365 0.879 0.365s0.634-0.121 0.876-0.362l14.801-14.76c0.234-0.232 0.365-0.549 0.365-0.878s-0.131-0.645-0.365-0.878z"></path>
  </symbol>
  <symbol id="icon-close" viewBox="0 0 32 32">
    <title>close</title>
    <path d="M17.768 16l13.866-13.866c0.488-0.488 0.488-1.28 0-1.768s-1.28-0.488-1.768 0l-13.866 13.866-13.866-13.866c-0.488-0.488-1.28-0.488-1.768 0s-0.488 1.28 0 1.768l13.866 13.866-13.866 13.866c-0.488 0.488-0.488 1.28 0 1.768 0.244 0.244 0.564 0.366 0.884 0.366s0.64-0.122 0.884-0.366l13.866-13.866 13.866 13.866c0.244 0.244 0.564 0.366 0.884 0.366s0.64-0.122 0.884-0.366c0.488-0.488 0.488-1.28 0-1.768l-13.866-13.866z"></path>
  </symbol>
  <symbol id="icon-position-and-distribution" viewBox="0 0 32 32">
<path d="M16 32c-8.837 0-16-7.163-16-16s7.163-16 16-16c8.837 0 16 7.163 16 16v0c-0.010 8.832-7.167 15.99-15.999 16h-0.001zM16 0.663c-8.47 0-15.337 6.867-15.337 15.337s6.867 15.337 15.337 15.337c8.47 0 15.337-6.867 15.337-15.337v0c-0.010-8.466-6.871-15.327-15.336-15.337h-0.001z"></path>
<path d="M16.004 25.712c-0.183-0-0.331-0.149-0.331-0.332 0-0.091 0.037-0.174 0.097-0.234v0l6.029-6.029-6.029-6.027c-0.060-0.060-0.098-0.143-0.098-0.235 0-0.183 0.149-0.332 0.332-0.332 0.091 0 0.174 0.037 0.234 0.097v0l6.498 6.498-6.498 6.498c-0.060 0.060-0.142 0.097-0.234 0.097-0 0-0 0-0.001 0h0z"></path>
<path d="M22.268 19.456h-15.777c-0.183 0-0.332-0.148-0.332-0.332s0.148-0.332 0.332-0.332v0h15.777c0.183 0 0.332 0.148 0.332 0.332s-0.148 0.332-0.332 0.332v0z"></path>
<path d="M14.424 17.908c-0.091-0.001-0.174-0.038-0.234-0.097l0 0-6.498-6.507 6.498-6.498c0.060-0.059 0.143-0.096 0.234-0.096s0.174 0.037 0.234 0.096l-0-0c0.060 0.060 0.098 0.143 0.098 0.234s-0.037 0.175-0.098 0.234l-0 0-6.036 6.029 6.036 6.027c0.065 0.061 0.105 0.147 0.105 0.243 0 0.184-0.149 0.334-0.334 0.334-0.002 0-0.004-0-0.006-0h0z"></path>
<path d="M23.937 11.636h-15.774c-0.183 0-0.332-0.148-0.332-0.332s0.148-0.332 0.332-0.332v0h15.774c0.183 0 0.332 0.148 0.332 0.332s-0.148 0.332-0.332 0.332v0z"></path>
</symbol>
<symbol id="icon-change-management" viewBox="0 0 32 32">
<path d="M3.444 4.25c0-0.003 0-0.006 0-0.009 0-0.648-0.526-1.174-1.174-1.174s-1.174 0.526-1.174 1.174c0 0.648 0.526 1.174 1.174 1.174v0c0.001 0 0.001 0 0.002 0 0.645 0 1.168-0.521 1.172-1.165v-0z"></path>
<path d="M2.27 5.673c-0.786 0-1.423-0.637-1.423-1.423s0.637-1.423 1.423-1.423c0.786 0 1.423 0.637 1.423 1.423v0c-0.001 0.785-0.638 1.422-1.423 1.423h-0zM2.27 3.323c-0.512 0-0.927 0.415-0.927 0.927s0.415 0.927 0.927 0.927c0.512 0 0.927-0.415 0.927-0.927v0c0-0.512-0.415-0.927-0.927-0.927v0z"></path>
<path d="M20.606 0h-9.21c-0.924 0.001-1.715 0.574-2.035 1.385l-0.005 0.015v0.028l-9.219 27.629c-0.086 0.224-0.136 0.483-0.136 0.754 0 0.001 0 0.003 0 0.004v-0c0.001 1.207 0.979 2.184 2.186 2.186h27.631c1.206-0.002 2.182-0.98 2.183-2.186v-0c0-0.001 0-0.002 0-0.004 0-0.272-0.050-0.532-0.141-0.772l0.005 0.015-9.208-27.627v-0.028c-0.326-0.826-1.117-1.399-2.042-1.399-0.002 0-0.005 0-0.007 0h0zM0.65 29.814c0-0.001 0-0.002 0-0.003 0-0.194 0.037-0.38 0.103-0.551l-0.004 0.010 9.215-27.637c0.227-0.58 0.782-0.983 1.432-0.983 0 0 0 0 0 0h9.21c0 0 0 0 0 0 0.649 0 1.204 0.403 1.428 0.973l0.004 0.010 9.212 27.637c0.063 0.16 0.1 0.346 0.1 0.541 0 0.001 0 0.002 0 0.003v-0c0 0.001 0 0.001 0 0.002 0 0.847-0.687 1.534-1.534 1.534 0 0 0 0 0 0h-27.631c-0.001 0-0.001 0-0.002 0-0.847 0-1.534-0.687-1.534-1.534 0-0.001 0-0.002 0-0.002v0zM31.861 29.045v0zM0.139 29.045v0z"></path>
<path d="M15.919 31.675c-0.127-0.001-0.237-0.073-0.292-0.178l-0.001-0.002-13.647-27.46c-0.017-0.038-0.027-0.083-0.027-0.131 0-0.179 0.145-0.325 0.325-0.325 0.121 0 0.226 0.066 0.282 0.164l0.001 0.002 13.647 27.46c0.021 0.042 0.034 0.091 0.034 0.143 0 0.127-0.073 0.236-0.179 0.289l-0.002 0.001c-0.041 0.022-0.089 0.036-0.14 0.037h-0z"></path>
</symbol>
<symbol id="icon-trends-forecasting" viewBox="0 0 36 32">
<path d="M2.072 32.012c-0.763-0-1.429-0.412-1.79-1.025l-0.005-0.010c-0.174-0.295-0.277-0.65-0.277-1.029 0-0.192 0.027-0.379 0.076-0.555l-0.003 0.014c0.053-0.192 0.124-0.36 0.215-0.515l-0.005 0.010 14.567-27.85c0.362-0.632 1.032-1.051 1.8-1.051 0.755 0 1.415 0.404 1.776 1.008l0.005 0.009 17.226 27.538c0.22 0.323 0.351 0.722 0.351 1.152 0 1.116-0.885 2.025-1.991 2.064l-0.004 0zM16.649 0.722c-0 0-0.001 0-0.001 0-0.496 0-0.93 0.269-1.162 0.67l-0.003 0.006-14.572 27.85c-0.058 0.096-0.106 0.208-0.138 0.326l-0.002 0.009c-0.028 0.103-0.044 0.22-0.044 0.342 0 0.742 0.601 1.343 1.343 1.343 0 0 0.001 0 0.001 0h-0l31.925-0.241c0.715-0.034 1.282-0.622 1.282-1.342 0-0.279-0.085-0.538-0.23-0.752l0.003 0.005-17.238-27.545c-0.179-0.304-0.466-0.529-0.806-0.624l-0.009-0.002c-0.104-0.029-0.223-0.046-0.347-0.046-0 0-0 0-0 0v0zM0.599 29.066v0z"></path>
<path d="M18.48 15.289c-0.115-0.001-0.217-0.055-0.283-0.139l-0.001-0.001c-0.048-0.060-0.077-0.138-0.077-0.222 0-0.115 0.054-0.218 0.139-0.283l0.001-0.001 13.433-10.511c0.062-0.052 0.143-0.084 0.231-0.084 0.199 0 0.361 0.162 0.361 0.361 0 0.119-0.057 0.224-0.146 0.29l-0.001 0.001-13.435 10.511c-0.060 0.048-0.137 0.077-0.221 0.077h-0z"></path>
<path d="M18.48 15.289c-0 0-0.001 0-0.002 0-0.064 0-0.124-0.017-0.176-0.047l0.002 0.001-12.287-6.845c-0.112-0.063-0.186-0.181-0.186-0.316 0-0.2 0.162-0.362 0.362-0.362 0.064 0 0.125 0.017 0.178 0.046l-0.002-0.001 12.287 6.848c0.111 0.063 0.185 0.181 0.185 0.315 0 0.199-0.162 0.361-0.361 0.361v0z"></path>
<path d="M18.48 15.289c-0.011 0.001-0.023 0.002-0.036 0.002-0.2 0-0.363-0.162-0.363-0.363 0-0.188 0.142-0.342 0.325-0.361l0.002-0 17.246-3.495c0.021-0.004 0.046-0.007 0.071-0.007 0.203 0 0.368 0.165 0.368 0.368 0 0.178-0.127 0.327-0.295 0.361l-0.002 0-17.243 3.488z"></path>
</symbol>
<symbol id="icon-distinct-place-making" viewBox="0 0 32 32">
<path d="M30.137 12.068h-27.928c-1.22 0.002-2.208 0.991-2.208 2.211 0 0.298 0.059 0.583 0.166 0.842l-0.005-0.015 6.213 15.529c0.34 0.804 1.122 1.357 2.034 1.357 0.002 0 0.003 0 0.005 0h15.516c0.001 0 0.002 0 0.003 0 0.912 0 1.694-0.554 2.030-1.343l0.005-0.014 6.216-15.529c0.102-0.245 0.162-0.531 0.162-0.83 0-1.22-0.987-2.209-2.206-2.211h-0zM0.657 14.277c0-0.001 0-0.001 0-0.002 0-0.856 0.694-1.55 1.55-1.55 0.001 0 0.002 0 0.002 0h27.928c0 0 0 0 0 0 0.856 0 1.55 0.694 1.55 1.55 0 0.001 0 0.002 0 0.002v-0c0 0.001 0 0.003 0 0.005 0 0.209-0.042 0.408-0.118 0.59l0.004-0.010-6.211 15.527c-0.24 0.565-0.791 0.954-1.432 0.955h-15.514c-0.001 0-0.001 0-0.002 0-0.641 0-1.191-0.389-1.426-0.944l-0.004-0.010-6.213-15.527c-0.072-0.173-0.113-0.374-0.114-0.584v-0z"></path>
<path d="M20.854 31.796c-0.181 0-0.328-0.147-0.328-0.328v0-18.964c0-0.181 0.147-0.328 0.328-0.328s0.328 0.147 0.328 0.328v0 18.964c0 0.181-0.147 0.328-0.328 0.328v0z"></path>
<path d="M11.545 31.985c-0.181 0-0.328-0.147-0.328-0.328v0-19.201c0-0.181 0.147-0.328 0.328-0.328s0.328 0.147 0.328 0.328v0 19.201c0 0.181-0.147 0.328-0.328 0.328v0z"></path>
<path d="M1.423 17.228h29.373v0.657h-29.373v-0.657z"></path>
<path d="M4.293 24.808h23.553v0.657h-23.553v-0.657z"></path>
<path d="M11.518 9.951c-0 0-0 0-0.001 0-0.181 0-0.328-0.147-0.328-0.328 0-0.054 0.013-0.106 0.037-0.151l-0.001 0.002 4.661-9.292c0.052-0.117 0.167-0.196 0.301-0.196 0.181 0 0.328 0.147 0.328 0.328 0 0.059-0.016 0.115-0.043 0.163l0.001-0.002-4.65 9.294c-0.057 0.109-0.169 0.182-0.298 0.182-0.002 0-0.005-0-0.007-0h0z"></path>
<path d="M20.828 9.951c-0.128-0.001-0.239-0.074-0.295-0.18l-0.001-0.002-3.284-6.581c-0.027-0.046-0.042-0.102-0.042-0.161 0-0.181 0.147-0.328 0.328-0.328 0.134 0 0.248 0.080 0.3 0.194l0.001 0.002 3.284 6.581c0.022 0.043 0.035 0.093 0.035 0.147 0 0.181-0.147 0.328-0.328 0.328h-0z"></path>
</symbol>
<symbol id="icon-brand-concept-development" viewBox="0 0 22 32">
<path d="M7.988 27.709c-0.012 0.001-0.025 0.002-0.039 0.002-0.18 0-0.327-0.146-0.327-0.327 0-0.167 0.125-0.304 0.286-0.324l0.002-0 6.13-1.531c0.024-0.006 0.051-0.010 0.079-0.010 0.179 0 0.324 0.145 0.324 0.324 0 0.151-0.103 0.278-0.243 0.314l-0.002 0-6.13 1.54c-0.024 0.006-0.051 0.010-0.080 0.011h-0z"></path>
<path d="M7.988 29.848c-0.012 0.001-0.025 0.002-0.039 0.002-0.18 0-0.327-0.146-0.327-0.327 0-0.167 0.125-0.304 0.286-0.324l0.002-0 6.13-1.514c0.024-0.006 0.051-0.010 0.079-0.010 0.179 0 0.324 0.145 0.324 0.324 0 0.151-0.103 0.278-0.243 0.314l-0.002 0-6.13 1.534c-0.012 0.001-0.026 0.002-0.040 0.002s-0.028-0.001-0.042-0.002l0.002 0z"></path>
<path d="M7.988 32.011c-0.012 0.001-0.025 0.002-0.039 0.002-0.18 0-0.327-0.146-0.327-0.327 0-0.167 0.125-0.304 0.286-0.324l0.002-0 6.13-1.531c0.024-0.006 0.051-0.010 0.079-0.010 0.179 0 0.324 0.145 0.324 0.324 0 0.151-0.103 0.278-0.243 0.314l-0.002 0-6.13 1.529c-0.023 0.010-0.050 0.017-0.078 0.021l-0.002 0z"></path>
<path d="M6.729 25.622c-0.179 0-0.324-0.145-0.324-0.324v0c0-0.007 0-0.015 0-0.023 0-2.219-0.903-4.227-2.362-5.676l-0-0c-2.682-2.684-4.042-5.559-4.042-8.546 0.009-6.101 4.952-11.044 11.052-11.052h0.001c0.179 0 0.324 0.145 0.324 0.324s-0.145 0.324-0.324 0.324v0c-5.743 0.007-10.396 4.661-10.403 10.403v0.001c0 2.812 1.298 5.528 3.852 8.087 1.577 1.567 2.552 3.738 2.552 6.136 0 0.011-0 0.021-0 0.032v-0.002c-0.005 0.175-0.148 0.316-0.324 0.316-0 0-0 0-0 0v0z"></path>
<path d="M15.573 23.792c-0.011 0.002-0.023 0.002-0.036 0.002s-0.025-0.001-0.037-0.003l0.001 0c-0.146-0.034-0.252-0.163-0.252-0.316 0-0.025 0.003-0.050 0.008-0.073l-0 0.002c0.383-1.681 1.209-3.13 2.349-4.265l0-0c2.557-2.557 3.852-5.277 3.852-8.087-0.007-5.744-4.662-10.397-10.405-10.403h-0.001c-0.179 0-0.324-0.145-0.324-0.324s0.145-0.324 0.324-0.324v0c6.102 0.007 11.046 4.951 11.055 11.052v0.001c0 2.987-1.36 5.861-4.042 8.546-1.049 1.048-1.81 2.384-2.152 3.88l-0.010 0.054c-0.033 0.149-0.164 0.26-0.321 0.26-0.003 0-0.005-0-0.008-0h0z"></path>
</symbol>
<symbol id="icon-facebook" viewBox="0 0 32 32">
<path d="M19 6h5v-6h-5c-3.86 0-7 3.14-7 7v3h-4v6h4v16h6v-16h5l1-6h-6v-3c0-0.542 0.458-1 1-1z"></path>
</symbol>
<symbol id="icon-instagram" viewBox="0 0 32 32">
<path d="M16 2.881c4.275 0 4.781 0.019 6.462 0.094 1.563 0.069 2.406 0.331 2.969 0.55 0.744 0.288 1.281 0.638 1.837 1.194 0.563 0.563 0.906 1.094 1.2 1.838 0.219 0.563 0.481 1.412 0.55 2.969 0.075 1.688 0.094 2.194 0.094 6.463s-0.019 4.781-0.094 6.463c-0.069 1.563-0.331 2.406-0.55 2.969-0.288 0.744-0.637 1.281-1.194 1.837-0.563 0.563-1.094 0.906-1.837 1.2-0.563 0.219-1.413 0.481-2.969 0.55-1.688 0.075-2.194 0.094-6.463 0.094s-4.781-0.019-6.463-0.094c-1.563-0.069-2.406-0.331-2.969-0.55-0.744-0.288-1.281-0.637-1.838-1.194-0.563-0.563-0.906-1.094-1.2-1.837-0.219-0.563-0.481-1.413-0.55-2.969-0.075-1.688-0.094-2.194-0.094-6.463s0.019-4.781 0.094-6.463c0.069-1.563 0.331-2.406 0.55-2.969 0.288-0.744 0.638-1.281 1.194-1.838 0.563-0.563 1.094-0.906 1.838-1.2 0.563-0.219 1.412-0.481 2.969-0.55 1.681-0.075 2.188-0.094 6.463-0.094zM16 0c-4.344 0-4.887 0.019-6.594 0.094-1.7 0.075-2.869 0.35-3.881 0.744-1.056 0.412-1.95 0.956-2.837 1.85-0.894 0.888-1.438 1.781-1.85 2.831-0.394 1.019-0.669 2.181-0.744 3.881-0.075 1.713-0.094 2.256-0.094 6.6s0.019 4.887 0.094 6.594c0.075 1.7 0.35 2.869 0.744 3.881 0.413 1.056 0.956 1.95 1.85 2.837 0.887 0.887 1.781 1.438 2.831 1.844 1.019 0.394 2.181 0.669 3.881 0.744 1.706 0.075 2.25 0.094 6.594 0.094s4.888-0.019 6.594-0.094c1.7-0.075 2.869-0.35 3.881-0.744 1.050-0.406 1.944-0.956 2.831-1.844s1.438-1.781 1.844-2.831c0.394-1.019 0.669-2.181 0.744-3.881 0.075-1.706 0.094-2.25 0.094-6.594s-0.019-4.887-0.094-6.594c-0.075-1.7-0.35-2.869-0.744-3.881-0.394-1.063-0.938-1.956-1.831-2.844-0.887-0.887-1.781-1.438-2.831-1.844-1.019-0.394-2.181-0.669-3.881-0.744-1.712-0.081-2.256-0.1-6.6-0.1v0z"></path>
<path d="M16 7.781c-4.537 0-8.219 3.681-8.219 8.219s3.681 8.219 8.219 8.219 8.219-3.681 8.219-8.219c0-4.537-3.681-8.219-8.219-8.219zM16 21.331c-2.944 0-5.331-2.387-5.331-5.331s2.387-5.331 5.331-5.331c2.944 0 5.331 2.387 5.331 5.331s-2.387 5.331-5.331 5.331z"></path>
<path d="M26.462 7.456c0 1.060-0.859 1.919-1.919 1.919s-1.919-0.859-1.919-1.919c0-1.060 0.859-1.919 1.919-1.919s1.919 0.859 1.919 1.919z"></path>
</symbol>
<symbol id="icon-twitter" viewBox="0 0 32 32">
<path d="M32 7.075c-1.175 0.525-2.444 0.875-3.769 1.031 1.356-0.813 2.394-2.1 2.887-3.631-1.269 0.75-2.675 1.3-4.169 1.594-1.2-1.275-2.906-2.069-4.794-2.069-3.625 0-6.563 2.938-6.563 6.563 0 0.512 0.056 1.012 0.169 1.494-5.456-0.275-10.294-2.888-13.531-6.862-0.563 0.969-0.887 2.1-0.887 3.3 0 2.275 1.156 4.287 2.919 5.463-1.075-0.031-2.087-0.331-2.975-0.819 0 0.025 0 0.056 0 0.081 0 3.181 2.263 5.838 5.269 6.437-0.55 0.15-1.131 0.231-1.731 0.231-0.425 0-0.831-0.044-1.237-0.119 0.838 2.606 3.263 4.506 6.131 4.563-2.25 1.762-5.075 2.813-8.156 2.813-0.531 0-1.050-0.031-1.569-0.094 2.913 1.869 6.362 2.95 10.069 2.95 12.075 0 18.681-10.006 18.681-18.681 0-0.287-0.006-0.569-0.019-0.85 1.281-0.919 2.394-2.075 3.275-3.394z"></path>
</symbol>
<symbol id="icon-linkedin" viewBox="0 0 32 32">
<path d="M12 12h5.535v2.837h0.079c0.77-1.381 2.655-2.837 5.464-2.837 5.842 0 6.922 3.637 6.922 8.367v9.633h-5.769v-8.54c0-2.037-0.042-4.657-3.001-4.657-3.005 0-3.463 2.218-3.463 4.509v8.688h-5.767v-18z"></path>
<path d="M2 12h6v18h-6v-18z"></path>
<path d="M8 7c0 1.657-1.343 3-3 3s-3-1.343-3-3c0-1.657 1.343-3 3-3s3 1.343 3 3z"></path>
</symbol>
</defs>
</svg>
